<!DOCTYPE svg PUBLIC "-//W3C//DTD SVG 1.1//EN" "http://www.w3.org/Graphics/SVG/1.1/DTD/svg11.dtd">
<!-- Uploaded to: SVG Repo, www.svgrepo.com, Transformed by: SVG Repo Mixer Tools -->
<svg width="800px" height="800px" viewBox="-102.4 -102.4 1228.80 1228.80" class="icon" version="1.1" xmlns="http://www.w3.org/2000/svg" fill="#000000" transform="matrix(1, 0, 0, 1, 0, 0)rotate(0)">
<g id="SVGRepo_bgCarrier" stroke-width="0" transform="translate(0,0), scale(1)">
<rect x="-102.4" y="-102.4" width="1228.80" height="1228.80" rx="614.4" fill="#7ed0ec" strokewidth="0"/>
</g>
<g id="SVGRepo_tracerCarrier" stroke-linecap="round" stroke-linejoin="round" stroke="#fff" stroke-width="40.96">
<path d="M512 569.2m-10 0a10 10 0 1 0 20 0 10 10 0 1 0-20 0Z" fill="#db9600"/>
<path d="M611.8 617.1H406.5L108 390.3v20.1l293 222.7h216l299-223.3v-20L611.8 617.1z" fill="#db9600"/>
<path d="M704 256.8v-94.5H320v94.5H64v605h896v-605H704z m-340-50.5h296v50.4H364v-50.4z m552 611.5H108V769h808v48.8z m0-64.9H108V300.8h808v452.1z" fill="#230be0"/>
</g>
<g id="SVGRepo_iconCarrier">
<path d="M512 569.2m-10 0a10 10 0 1 0 20 0 10 10 0 1 0-20 0Z" fill="#db9600"/>
<path d="M611.8 617.1H406.5L108 390.3v20.1l293 222.7h216l299-223.3v-20L611.8 617.1z" fill="#db9600"/>
<path d="M704 256.8v-94.5H320v94.5H64v605h896v-605H704z m-340-50.5h296v50.4H364v-50.4z m552 611.5H108V769h808v48.8z m0-64.9H108V300.8h808v452.1z" fill="#230be0"/>
</g>
</svg>